<?xml version="1.0" encoding="utf-8"?>
<!-- Generator: Adobe Illustrator 16.0.0, SVG Export Plug-In . SVG Version: 6.00 Build 0)  -->
<!DOCTYPE svg PUBLIC "-//W3C//DTD SVG 1.1//EN" "http://www.w3.org/Graphics/SVG/1.1/DTD/svg11.dtd">
<svg version="1.1" xmlns="http://www.w3.org/2000/svg" xmlns:xlink="http://www.w3.org/1999/xlink" x="0px" y="0px" width="219px"
	 height="40px" viewBox="0 0 219 40" enable-background="new 0 0 219 40" xml:space="preserve">
<g id="Layer_2">
</g>
<g id="Layer_1">
	<g>
		<path fill="#FFFFFF" d="M22.312,0.014c0.266,0,0.65-0.037,1.026,0.009c0.803,0.098,1.54,0.312,2.238,0.815
			c0.808,0.584,1.67,1.081,2.394,1.788c1.135,1.112,1.414,2.934,0.634,4.298c-1.17,2.054-2.645,3.814-4.649,5.119
			c-1.075,0.7-2.076,1.513-3.12,2.264c-0.269,0.195-0.554,0.379-0.857,0.512c-0.205,0.092-0.488,0.178-0.677,0.106
			c-0.669-0.248-1.335-0.528-1.669-1.248c-0.159-0.343-0.388-0.658-0.539-1.006c-0.271-0.619-0.137-1.057,0.459-1.455
			c0.913-0.609,1.842-1.19,2.765-1.782c1.789-1.15,3.271-2.609,4.4-4.417c0.273-0.438,0.182-0.588-0.287-0.627
			c-1.027-0.084-1.977,0.204-2.922,0.552c-3.11,1.144-5.95,2.754-8.511,4.86c-1.768,1.452-3.584,2.852-5.113,4.564
			c-1.171,1.313-2.364,2.612-3.232,4.163C4.37,19.024,4,19.468,3.73,19.967c-0.253,0.475,0.004,0.893,0.552,0.857
			c0.613-0.038,1.237-0.121,1.819-0.299c1.139-0.348,2.263-0.745,3.369-1.182c0.433-0.169,0.822-0.474,1.196-0.762
			c1.63-1.255,3.377-2.314,5.229-3.204c0.129-0.062,0.261-0.117,0.396-0.167c0.342-0.133,0.678-0.069,0.939,0.158
			c0.731,0.636,1.213,1.453,1.605,2.328c0.271,0.607,0.083,1.139-0.343,1.573c-0.465,0.474-0.936,0.975-1.494,1.317
			c-1.425,0.876-2.727,1.921-3.997,2.985c-2.006,1.677-3.973,3.429-5.406,5.652c-0.979,1.52-1.829,3.121-2.734,4.688
			C4.839,33.951,4.826,34,4.816,34.045c-0.197,0.726-0.547,1.421-0.42,2.205c0.766,0.391,1.492,0.021,2.209-0.16
			c0.595-0.15,1.174-0.396,1.73-0.664c1.284-0.623,2.528-1.329,3.828-1.918c1.326-0.6,2.406-1.544,3.533-2.412
			c2.458-1.893,4.685-4.039,6.712-6.392c0.715-0.827,1.498-1.599,2.265-2.384c0.077-0.08,0.252-0.084,0.384-0.083
			c0.035,0.003,0.101,0.161,0.092,0.241c-0.071,0.804-0.153,1.607-0.239,2.408c-0.009,0.094-0.066,0.181-0.087,0.273
			c-0.132,0.597,0.188,1.258-0.207,1.81c-0.339,0.478-0.519,1.006-0.701,1.552c-0.26,0.783-0.807,1.409-1.373,1.986
			c-1.973,2.01-4.129,3.811-6.392,5.486c-0.267,0.195-0.572,0.342-0.869,0.494c-1.272,0.65-2.563,1.266-3.821,1.946
			c-0.811,0.438-1.672,0.696-2.564,0.843c-0.938,0.153-1.888,0.241-2.837,0.33c-0.277,0.025-0.587,0.027-0.843-0.066
			c-1.163-0.436-2.25-0.961-3.022-2.031c-1.231-1.711-1.798-3.562-1.377-5.648c0.372-1.844,1.237-3.49,2.203-5.084
			c0.148-0.243,0.377-0.452,0.467-0.713c0.296-0.863,1.151-1.39,1.37-2.295c-0.759-0.389-1.526-0.764-2.276-1.17
			C1.845,22.2,1.293,21.605,0.997,20.82c-0.319-0.84-0.814-1.596-0.949-2.529c-0.13-0.904,0.003-1.691,0.451-2.458
			c1.303-2.235,2.883-4.249,4.697-6.098c1.507-1.535,3.1-2.962,4.812-4.258c1.939-1.465,3.899-2.915,6.165-3.844
			c1.32-0.539,2.673-1.012,4.039-1.417C20.835,0.032,21.53,0.082,22.312,0.014z"/>
		<path fill="#FFFFFF" d="M34.09,23.526c-0.169-0.913,0.046-1.735,0.428-2.556c0.499-1.07,0.884-2.189,1.316-3.288
			c0.076-0.189,0.135-0.384,0.224-0.566c0.327-0.679,0.597-0.858,1.273-0.62c0.724,0.259,1.455,0.564,2.083,0.994
			c0.697,0.473,0.965,1.186,0.597,2.047c-0.516,1.206-0.999,2.424-1.499,3.637c-0.038,0.093-0.134,0.171-0.146,0.263
			c-0.029,0.219-0.022,0.442-0.031,0.665c0.2-0.093,0.436-0.145,0.595-0.285c0.859-0.761,1.7-1.545,2.548-2.318
			c0.1-0.091,0.191-0.196,0.301-0.271c0.219-0.146,0.381-0.104,0.423,0.178c0.12,0.764-0.025,1.497-0.384,2.161
			c-0.448,0.831-0.926,1.652-1.462,2.43c-0.688,0.995-1.716,1.248-2.865,1.129c-0.201-0.021-0.395-0.088-0.595-0.122
			c-0.725-0.128-0.876-0.041-1.174,0.618c-0.557,1.232-1.099,2.47-1.69,3.686c-0.693,1.429-1.439,2.834-2.473,4.054
			c-0.393,0.46-0.864,0.851-1.303,1.271c-0.047,0.046-0.112,0.088-0.175,0.099c-1.141,0.21-2.388,0.421-3.365-0.183
			c-1.5-0.924-2.797-2.168-3.11-4.055c-0.114-0.69-0.186-1.426-0.083-2.111c0.458-3.076,1.147-6.104,2.13-9.061
			c0.341-1.025,0.622-2.071,0.946-3.102c0.267-0.848,0.278-0.795,1.207-0.828c1.063-0.04,1.902,0.357,2.636,1.075
			c0.5,0.488,0.702,1.061,0.531,1.752c-0.252,1.009-0.493,2.021-0.757,3.028c-0.454,1.729-0.938,3.448-1.38,5.179
			c-0.274,1.078-0.545,2.158-0.725,3.256c-0.13,0.791-0.108,1.607-0.147,2.415c-0.004,0.099,0.019,0.202,0.046,0.299
			c0.138,0.469,0.513,0.608,0.825,0.241c0.542-0.646,1.06-1.322,1.507-2.035c1.418-2.273,2.393-4.769,3.487-7.2
			C34.08,24.85,34.013,24.156,34.09,23.526z"/>
		<path fill="#FFFFFF" d="M46.107,37.063c-1.61,0.089-2.953-0.567-4.159-1.453c-2.565-1.88-3.323-4.508-2.728-7.524
			c0.557-2.829,1.711-5.433,3.688-7.564c0.957-1.033,2.119-1.881,3.218-2.776c0.536-0.437,1.182-0.422,1.831-0.231
			c0.617,0.182,1.251,0.302,1.852,0.524c0.595,0.219,1.229,0.436,1.715,0.82c0.884,0.699,1.015,1.682,0.76,2.759
			c-0.494,2.088-1.367,4.029-2.279,5.953c-0.405,0.855-0.808,1.717-1.315,2.509c-0.375,0.586-0.883,1.102-1.397,1.579
			c-0.415,0.385-0.913,0.451-1.506,0.23c-0.749-0.276-1.412-0.637-1.957-1.213c-0.242-0.256-0.534-0.561-0.859-0.344
			c-0.236,0.158-0.405,0.538-0.445,0.84c-0.083,0.631-0.151,1.288-0.063,1.911c0.171,1.196,0.851,2.231,2.388,1.976
			c1.327-0.223,2.417-0.819,3.402-1.672c1.641-1.423,3.031-3.079,4.4-4.758c0.896-1.098,1.844-2.154,2.784-3.216
			c0.114-0.131,0.32-0.18,0.483-0.267c0.064,0.209,0.23,0.446,0.177,0.621c-0.438,1.449-0.868,2.904-1.784,4.152
			c-0.997,1.359-1.937,2.766-2.981,4.086c-0.623,0.79-1.352,1.512-2.112,2.17C48.332,36.941,47.219,37.121,46.107,37.063z
			 M48.288,20.906c-0.226,0.15-0.407,0.241-0.553,0.375c-0.224,0.201-0.418,0.437-0.633,0.65c-1.528,1.516-2.602,3.322-3.468,5.281
			c-0.321,0.729-0.076,1.3,0.254,1.895c0.198,0.355,0.437,0.447,0.816,0.171c0.717-0.52,1.123-1.258,1.461-2.025
			c0.798-1.819,1.546-3.665,2.308-5.501c0.064-0.152,0.135-0.33,0.108-0.479C48.56,21.146,48.405,21.043,48.288,20.906z"/>
		<path fill="#FFFFFF" d="M65.594,39.854c-0.561,0.104-1.233-0.302-1.917-0.752c-1.762-1.161-2.579-2.686-2.271-4.856
			c0.354-2.523,1.104-4.906,2.083-7.238c0.754-1.793,1.486-3.595,2.237-5.389c0.123-0.293,0.302-0.563,0.433-0.854
			c0.046-0.104,0.028-0.235,0.039-0.354c-0.098,0.042-0.233,0.055-0.288,0.129c-0.776,1.014-1.615,1.986-2.289,3.063
			c-1.186,1.889-2.293,3.827-3.382,5.773c-0.869,1.554-1.651,3.155-2.49,4.726c-0.284,0.533-0.618,1.039-0.935,1.555
			c-0.271,0.438-0.672,0.502-1.161,0.455c-1.735-0.162-2.829-1.203-3.654-2.614c-0.325-0.556-0.29-1.179-0.158-1.776
			c0.267-1.215,0.553-2.424,0.87-3.629c0.793-3.037,2.031-5.91,3.252-8.792c0.185-0.437,0.292-0.911,0.42-1.371
			c0.127-0.446,0.392-0.582,0.862-0.531c0.852,0.091,1.609,0.427,2.3,0.88c0.88,0.575,1.109,1.479,0.701,2.544
			c-0.423,1.102-0.905,2.182-1.333,3.283c-0.506,1.307-0.979,2.627-1.473,3.938c-0.179,0.477-0.389,0.942-0.558,1.423
			c-0.045,0.125,0.006,0.285,0.014,0.43c0.12-0.092,0.288-0.156,0.353-0.277c0.328-0.62,0.598-1.273,0.948-1.881
			c1.353-2.347,2.714-4.689,4.099-7.018c0.739-1.243,1.719-2.291,2.838-3.199c0.491-0.397,1.042-0.73,1.592-1.045
			c0.591-0.34,1.278-0.299,1.864-0.099c0.958,0.326,1.919,0.693,2.717,1.366c0.702,0.592,0.885,1.275,0.735,2.213
			c-0.241,1.495-1.09,2.716-1.614,4.079c-0.583,1.511-1.324,2.957-1.95,4.451c-0.42,0.997-0.792,2.017-1.125,3.045
			c-0.392,1.213-0.736,2.439-1.059,3.672c-0.113,0.436-0.396,1.096,0.078,1.295c0.449,0.188,0.755-0.471,1.042-0.829
			c1.755-2.189,3.49-4.392,5.232-6.589c0.041-0.049,0.068-0.113,0.117-0.149c0.243-0.172,0.491-0.337,0.737-0.502
			c0.046,0.272,0.158,0.553,0.129,0.817c-0.134,1.211-0.472,2.352-0.977,3.479c-0.838,1.876-1.924,3.599-3.064,5.282
			C68.74,39.268,67.426,39.839,65.594,39.854z"/>
		<path fill="#FFFFFF" d="M88.658,6.015c1.046,0,2.094-0.024,3.139,0.017c0.307,0.01,0.698,0.125,0.896,0.336
			c0.62,0.666,0.294,1.477-0.64,1.611c-0.667,0.096-1.348,0.104-2.023,0.144c-1.144,0.067-2.288,0.143-3.434,0.188
			c-0.745,0.029-1.253,0.309-1.56,1.044c-1.343,3.24-2.942,6.375-3.844,9.794c-0.35,1.33-0.925,2.6-1.347,3.914
			c-0.493,1.542-0.955,3.094-1.387,4.654c-0.486,1.758-0.927,3.527-1.374,5.296c-0.174,0.687-0.337,1.38-0.453,2.078
			c-0.039,0.238,0.082,0.505,0.13,0.758c0.224-0.115,0.508-0.179,0.658-0.354c0.435-0.515,0.862-1.047,1.212-1.622
			c1.136-1.874,2.25-3.763,3.348-5.659c0.979-1.693,1.921-3.409,2.891-5.107c0.05-0.088,0.199-0.121,0.303-0.18
			c0.022,0.122,0.086,0.256,0.061,0.367c-0.258,1.113-0.416,2.268-0.824,3.324c-0.846,2.169-1.782,4.309-2.771,6.417
			c-0.602,1.281-1.334,2.506-2.074,3.717c-0.663,1.087-1.539,1.946-2.817,2.341c-0.797,0.246-1.524,0.219-2.241-0.199
			c-1.973-1.148-2.818-2.906-2.347-5.254c0.767-3.807,1.672-7.587,2.897-11.277c0.904-2.721,1.868-5.424,2.843-8.121
			c0.573-1.586,1.229-3.141,1.827-4.721c0.326-0.864,0.084-1.128-0.854-1.129c-1.999-0.005-3.948,0.466-5.936,0.562
			c-0.538,0.025-1.079,0.023-1.616-0.005c-0.296-0.014-0.69-0.049-0.683-0.445c0.006-0.348,0.378-0.31,0.638-0.349
			c1.967-0.288,3.934-0.586,5.904-0.867c0.803-0.113,1.611-0.258,2.417-0.268c0.806-0.012,1.29-0.41,1.569-1.066
			c0.422-0.993,0.799-2.005,1.142-3.027c0.318-0.947,0.483-1.101,1.44-0.838c0.743,0.201,1.511,0.347,2.096,0.947
			c0.611,0.627,0.923,1.289,0.682,2.189c-0.192,0.724-0.006,0.927,0.711,0.948c0.474,0.013,0.947,0.002,1.421,0.002
			C88.658,6.12,88.658,6.068,88.658,6.015z"/>
		<path fill="#FFFFFF" d="M96.313,32.93c0.095-0.711,0.178-1.424,0.288-2.13c0.412-2.647,1.388-5.122,2.401-7.573
			c1.203-2.906,2.499-5.78,3.748-8.668c0.124-0.286,0.222-0.586,0.315-0.887c0.008-0.029-0.125-0.148-0.179-0.142
			c-0.173,0.025-0.358,0.06-0.508,0.144c-2.64,1.489-5.106,3.219-7.197,5.426c-1.121,1.183-2.037,2.511-2.516,4.106
			c-0.256,0.847-0.364,1.665,0.027,2.493c0.145,0.308,0.159,0.621-0.098,0.877c-0.211,0.208-0.679,0.217-1.006-0.045
			c-0.419-0.332-0.828-0.697-1.165-1.111c-0.993-1.22-1.532-2.648-1.601-4.212c-0.079-1.733,0.55-3.251,1.626-4.596
			c0.365-0.455,0.702-0.938,1.092-1.37c0.421-0.464,0.888-0.887,1.34-1.326c0.386-0.374,0.774-0.745,1.164-1.116
			c0.163-0.157,0.315-0.326,0.495-0.458c2.002-1.451,4.046-2.819,6.301-3.876c1.587-0.742,3.17-1.485,4.768-2.205
			c0.729-0.327,1.393-0.808,2.056-1.264c0.206-0.14,0.341-0.413,0.458-0.649c0.282-0.566,0.722-0.77,1.331-0.677
			c0.132,0.021,0.271-0.012,0.403,0.018c0.911,0.189,1.766-0.049,2.643-0.262c2.277-0.557,4.572-0.976,6.939-0.865
			c1.072,0.051,2.069,0.343,2.956,0.841c1.614,0.909,3.024,2.097,4.038,3.696c0.826,1.302,1.141,2.73,1.047,4.25
			c-0.037,0.584-0.219,1.14-0.599,1.621c-1.038,1.313-2.177,2.509-3.583,3.445c-0.668,0.444-1.284,0.978-1.9,1.496
			c-1.488,1.252-3.182,2.191-4.838,3.187c-0.076,0.047-0.15,0.11-0.234,0.131c-1.553,0.369-2.818,1.386-4.31,1.891
			c-1.405,0.475-2.763,1.107-4.255,1.279c-0.845,0.098-1.697,0.199-2.548,0.214c-0.602,0.009-0.904,0.29-1.102,0.8
			c-0.78,2.01-1.544,4.029-2.052,6.128c-0.306,1.267-0.571,2.546-0.504,3.866c0.037,0.721,0.046,1.439,0.046,2.16
			c0.002,0.636-0.421,1.043-1.025,0.902c-1.009-0.234-1.972-0.553-2.718-1.379C96.55,35.635,96.349,35.176,96.313,32.93z
			 M124.453,8.499c-0.012-0.414-0.217-0.609-0.729-0.699c-1.692-0.294-3.391-0.381-5.093-0.072
			c-1.104,0.203-2.218,0.373-3.304,0.646c-0.867,0.218-1.754,0.344-2.598,0.698c-0.678,0.289-1.105,0.695-1.414,1.339
			c-0.406,0.85-0.873,1.67-1.314,2.504c-0.254,0.477-0.527,0.943-0.761,1.428c-0.602,1.251-1.187,2.512-1.78,3.769
			c-0.421,0.894-0.846,1.785-1.26,2.682c-0.083,0.178,0.078,0.361,0.263,0.325c0.134-0.024,0.265-0.058,0.396-0.093
			c1.881-0.489,3.622-1.32,5.333-2.212c2.192-1.145,4.301-2.42,6.268-3.926c1.535-1.174,3.101-2.304,4.434-3.713
			c0.398-0.424,0.762-0.886,1.125-1.341C124.342,9.433,124.457,8.956,124.453,8.499z"/>
		<path fill="#FFFFFF" d="M122.412,33.808c-0.054-1.312,0.219-2.575,0.533-3.842c0.508-2.044,0.893-4.12,1.447-6.151
			c0.873-3.188,1.785-6.365,2.988-9.45c1.152-2.958,2.285-5.924,3.438-8.881c0.375-0.964,0.787-1.913,1.195-2.863
			c0.19-0.444,0.643-0.737,1.112-0.58c1.011,0.339,2.005,0.741,2.71,1.619c0.291,0.364,0.382,0.742,0.215,1.178
			c-0.359,0.934-0.713,1.872-1.082,2.803c-0.502,1.265-1.028,2.52-1.521,3.79c-0.751,1.935-1.512,3.867-2.213,5.82
			c-0.548,1.524-1.044,3.068-1.505,4.621c-0.657,2.207-1.235,4.439-1.896,6.647c-0.684,2.28-1.078,4.612-1.314,6.974
			c-0.034,0.348,0.057,0.902,0.284,1.041c0.397,0.24,0.714-0.252,0.912-0.535c0.911-1.301,1.807-2.614,2.63-3.971
			c1.106-1.824,2.138-3.692,3.211-5.537c0.071-0.125,0.219-0.207,0.33-0.309c0.094,0.127,0.235,0.241,0.269,0.381
			c0.048,0.211,0.063,0.449,0.019,0.66c-0.197,0.95-0.348,1.92-0.656,2.834c-0.32,0.948-0.745,1.871-1.231,2.749
			c-0.846,1.529-1.706,3.062-2.696,4.497c-0.479,0.692-1.188,1.331-1.938,1.701c-1.059,0.521-2.145,0.145-3.111-0.487
			c-1.451-0.947-2.146-2.298-2.129-4.025C122.413,34.263,122.412,34.035,122.412,33.808z"/>
		<path fill="#FFFFFF" d="M132.056,31.725c-0.105-1.471,0.253-3.051,1.15-4.475c0.884-1.398,1.642-2.897,2.612-4.227
			c0.773-1.06,1.783-1.932,2.695-2.881c0.287-0.299,0.557-0.644,0.904-0.85c0.526-0.31,1.121-0.428,1.773-0.409
			c1.717,0.049,3.248,0.631,4.629,1.769c0.62,0.51,0.781,0.467,1.092-0.219c0.068-0.149,0.135-0.299,0.201-0.45
			c0.438-1.006,0.555-1.074,1.628-0.913c1.289,0.191,2.423,1.646,2.118,2.908c-0.255,1.053-0.734,2.033-1.114,3.046
			c-0.474,1.258-0.933,2.521-1.419,3.771c-0.298,0.765-0.676,1.494-0.947,2.27c-0.258,0.74-0.462,1.512-0.615,2.289
			c-0.047,0.248,0.145,0.561,0.229,0.844c0.26-0.075,0.584-0.076,0.771-0.238c0.899-0.776,1.763-1.597,2.636-2.403
			c0.069-0.063,0.104-0.175,0.181-0.228c0.283-0.191,0.577-0.367,0.868-0.549c0.318,0.42,0.055,0.821-0.086,1.113
			c-0.607,1.258-1.227,2.523-1.979,3.686c-0.867,1.344-2.438,1.605-3.877,0.707c-1.512-0.943-2.428-2.301-2.57-4.112
			c-0.023-0.304-0.068-0.61-0.143-0.907c-0.037-0.143-0.168-0.371-0.25-0.374c-0.133-0.007-0.307,0.106-0.39,0.227
			c-0.96,1.377-1.858,2.805-2.875,4.134c-0.585,0.764-1.347,1.378-2.459,1.29c-0.852-0.067-1.716,0.039-2.495-0.548
			C132.974,34.982,132.151,33.692,132.056,31.725z M135.082,33.715c0.029,0.005,0.057,0.01,0.088,0.014
			c0.016,0.202,0.021,0.404,0.055,0.605c0.016,0.098,0.078,0.191,0.125,0.285c0.229,0.467,0.441,0.562,0.865,0.324
			c0.221-0.125,0.426-0.297,0.592-0.491c0.44-0.515,0.891-1.024,1.273-1.586c1.127-1.657,2.211-3.345,3.332-5.007
			c1.143-1.691,2.296-3.374,3.475-5.038c0.257-0.366,0.228-0.66-0.015-1.009c-0.407-0.584-1.099-0.766-1.661-0.441
			c-1.126,0.647-2.063,1.527-2.951,2.465c-1.176,1.243-2.135,2.658-3.04,4.128c-0.841,1.368-1.565,2.774-1.946,4.369
			C135.166,32.779,135.143,33.252,135.082,33.715z"/>
		<path fill="#FFFFFF" d="M162.518,39.78c-0.539,0.101-1.184-0.289-1.84-0.723c-1.691-1.114-2.477-2.578-2.182-4.663
			c0.342-2.422,1.061-4.711,2-6.95c0.725-1.722,1.428-3.452,2.148-5.175c0.117-0.281,0.289-0.541,0.416-0.818
			c0.043-0.1,0.026-0.227,0.035-0.34c-0.093,0.04-0.223,0.053-0.275,0.125c-0.745,0.973-1.551,1.907-2.197,2.939
			c-1.139,1.814-2.203,3.676-3.248,5.545c-0.834,1.492-1.586,3.03-2.39,4.539c-0.273,0.511-0.594,0.996-0.898,1.49
			c-0.26,0.422-0.646,0.482-1.114,0.438c-1.666-0.157-2.717-1.155-3.51-2.511c-0.312-0.533-0.277-1.132-0.152-1.705
			c0.258-1.168,0.532-2.329,0.836-3.484c0.763-2.916,1.951-5.676,3.123-8.442c0.178-0.42,0.279-0.875,0.404-1.316
			c0.122-0.429,0.376-0.56,0.826-0.511c0.819,0.088,1.547,0.41,2.209,0.845c0.847,0.553,1.066,1.42,0.674,2.444
			c-0.406,1.058-0.869,2.095-1.279,3.151c-0.486,1.255-0.94,2.522-1.414,3.782c-0.173,0.457-0.374,0.904-0.536,1.365
			c-0.043,0.121,0.005,0.275,0.013,0.414c0.115-0.088,0.276-0.15,0.338-0.266c0.316-0.596,0.575-1.223,0.912-1.807
			c1.299-2.254,2.605-4.504,3.936-6.74c0.709-1.191,1.652-2.198,2.725-3.07c0.471-0.381,1-0.701,1.528-1.004
			c0.568-0.326,1.229-0.288,1.79-0.096c0.92,0.314,1.842,0.667,2.607,1.313c0.676,0.568,0.852,1.223,0.708,2.124
			c-0.231,1.436-1.048,2.607-1.552,3.916c-0.559,1.451-1.271,2.84-1.873,4.273c-0.4,0.958-0.76,1.938-1.078,2.924
			c-0.377,1.164-0.709,2.344-1.018,3.527c-0.108,0.418-0.38,1.052,0.074,1.242c0.431,0.181,0.725-0.451,1.002-0.795
			c1.684-2.102,3.351-4.217,5.024-6.326c0.037-0.047,0.065-0.11,0.112-0.145c0.232-0.165,0.471-0.322,0.707-0.48
			c0.045,0.262,0.152,0.529,0.125,0.783c-0.129,1.164-0.453,2.258-0.938,3.342c-0.806,1.801-1.849,3.454-2.943,5.072
			C165.538,39.216,164.275,39.766,162.518,39.78z"/>
		<path fill="#FFFFFF" d="M180.186,39.78c-0.538,0.101-1.184-0.289-1.84-0.723c-1.691-1.114-2.477-2.578-2.182-4.663
			c0.342-2.422,1.06-4.711,2.001-6.95c0.724-1.722,1.427-3.452,2.147-5.175c0.118-0.281,0.289-0.541,0.416-0.818
			c0.044-0.1,0.027-0.227,0.037-0.34c-0.094,0.04-0.225,0.053-0.277,0.125c-0.745,0.973-1.551,1.907-2.199,2.939
			c-1.137,1.814-2.201,3.676-3.246,5.545c-0.834,1.492-1.586,3.03-2.391,4.539c-0.272,0.511-0.593,0.996-0.897,1.49
			c-0.26,0.422-0.646,0.482-1.114,0.438c-1.666-0.157-2.717-1.155-3.51-2.511c-0.312-0.533-0.277-1.132-0.15-1.705
			c0.256-1.168,0.531-2.329,0.834-3.484c0.764-2.916,1.951-5.676,3.123-8.442c0.178-0.42,0.279-0.875,0.404-1.316
			c0.122-0.429,0.376-0.56,0.826-0.511c0.818,0.088,1.547,0.41,2.211,0.845c0.846,0.553,1.064,1.42,0.672,2.444
			c-0.406,1.058-0.869,2.095-1.279,3.151c-0.486,1.255-0.939,2.522-1.414,3.782c-0.172,0.457-0.375,0.904-0.536,1.365
			c-0.044,0.121,0.005,0.275,0.013,0.414c0.115-0.088,0.275-0.15,0.338-0.266c0.316-0.596,0.576-1.223,0.912-1.807
			c1.299-2.254,2.605-4.504,3.936-6.74c0.71-1.191,1.651-2.198,2.725-3.07c0.471-0.381,1-0.701,1.528-1.004
			c0.568-0.326,1.228-0.288,1.79-0.096c0.92,0.314,1.843,0.667,2.609,1.313c0.673,0.568,0.85,1.223,0.705,2.124
			c-0.23,1.436-1.047,2.607-1.551,3.916c-0.559,1.451-1.271,2.84-1.872,4.273c-0.403,0.958-0.761,1.938-1.08,2.924
			c-0.376,1.164-0.708,2.344-1.017,3.527c-0.109,0.418-0.379,1.052,0.074,1.242c0.431,0.181,0.726-0.451,1.002-0.795
			c1.685-2.102,3.352-4.217,5.023-6.326c0.038-0.047,0.065-0.11,0.113-0.145c0.232-0.165,0.471-0.322,0.707-0.48
			c0.045,0.262,0.152,0.529,0.125,0.783c-0.129,1.164-0.454,2.258-0.938,3.342c-0.806,1.801-1.848,3.454-2.941,5.072
			C183.207,39.216,181.944,39.766,180.186,39.78z"/>
		<path fill="#FFFFFF" d="M192.086,37.1c-1.547,0.086-2.836-0.545-3.993-1.395c-2.464-1.805-3.19-4.328-2.62-7.226
			c0.535-2.716,1.644-5.215,3.541-7.263c0.92-0.992,2.035-1.807,3.092-2.665c0.515-0.419,1.135-0.407,1.758-0.223
			c0.592,0.174,1.201,0.292,1.777,0.504c0.57,0.209,1.182,0.418,1.646,0.788c0.85,0.671,0.975,1.614,0.73,2.647
			c-0.475,2.006-1.312,3.869-2.189,5.719c-0.389,0.819-0.775,1.647-1.263,2.408c-0.36,0.562-0.847,1.057-1.341,1.516
			c-0.398,0.369-0.877,0.432-1.445,0.221c-0.721-0.265-1.357-0.609-1.881-1.164c-0.231-0.246-0.512-0.539-0.824-0.33
			c-0.227,0.152-0.389,0.517-0.428,0.807c-0.08,0.605-0.145,1.236-0.061,1.835c0.164,1.149,0.816,2.143,2.293,1.897
			c1.275-0.215,2.32-0.787,3.266-1.605c1.576-1.367,2.912-2.957,4.227-4.568c0.859-1.054,1.77-2.068,2.674-3.088
			c0.109-0.125,0.307-0.173,0.463-0.257c0.062,0.2,0.221,0.43,0.17,0.597c-0.42,1.392-0.832,2.789-1.713,3.988
			c-0.957,1.305-1.859,2.654-2.861,3.924c-0.598,0.758-1.299,1.449-2.029,2.082C194.223,36.984,193.154,37.154,192.086,37.1z
			 M194.182,21.586c-0.218,0.145-0.393,0.232-0.531,0.359c-0.215,0.194-0.402,0.42-0.608,0.625c-1.466,1.457-2.499,3.191-3.329,5.07
			c-0.309,0.699-0.074,1.25,0.244,1.82c0.191,0.342,0.42,0.43,0.783,0.164c0.688-0.499,1.078-1.208,1.402-1.945
			c0.768-1.748,1.485-3.519,2.218-5.281c0.06-0.146,0.128-0.316,0.103-0.459C194.441,21.817,194.293,21.718,194.182,21.586z"/>
		<path fill="#FFFFFF" d="M209.951,24.832c0.156-0.727,0.32-1.45,0.461-2.18c0.027-0.137-0.043-0.293-0.066-0.44
			c-0.127,0.079-0.287,0.132-0.375,0.241c-0.4,0.512-0.818,1.013-1.16,1.562c-1.355,2.176-2.676,4.366-3.75,6.703
			c-0.787,1.703-1.678,3.357-2.559,5.014c-0.729,1.367-1.252,1.453-2.541,0.568c-0.879-0.604-1.611-1.332-1.92-2.365
			c-0.133-0.445-0.193-0.992-0.061-1.424c0.639-2.105,1.32-4.193,2.322-6.17c1.195-2.367,2.307-4.779,3.432-7.181
			c0.418-0.89,0.859-1.159,1.748-0.787c0.527,0.221,1.021,0.573,1.459,0.951c0.492,0.423,0.701,1.003,0.533,1.673
			c-0.057,0.221-0.096,0.447-0.125,0.672c-0.008,0.082,0.037,0.174,0.059,0.26c0.086-0.029,0.201-0.035,0.256-0.094
			c0.4-0.424,0.795-0.855,1.18-1.293c0.514-0.581,1.002-1.183,1.531-1.749c0.42-0.447,0.854-0.889,1.33-1.27
			c1.566-1.243,3.93-0.503,4.475,1.41c0.1,0.348,0.053,0.782-0.053,1.14c-0.324,1.082-0.559,2.207-1.211,3.168
			c-0.018,0.025-0.035,0.055-0.043,0.086c-0.076,0.328-0.416,0.705-0.039,0.979c0.377,0.27,0.639-0.118,0.902-0.351
			c0.588-0.512,1.174-1.026,1.775-1.521c0.109-0.09,0.324-0.154,0.438-0.105c0.092,0.037,0.133,0.264,0.143,0.411
			c0.01,0.19,0.027,0.423-0.064,0.571c-0.652,1.078-1.295,2.166-2.023,3.193c-0.408,0.574-0.965,1.049-1.469,1.55
			c-0.863,0.857-2.299,0.906-3.24-0.06C210.467,27.144,209.891,26.123,209.951,24.832z"/>
	</g>
</g>
</svg>
