<?xml version="1.0" encoding="utf-8"?>
<!-- Generator: Adobe Illustrator 16.0.0, SVG Export Plug-In . SVG Version: 6.00 Build 0)  -->
<!DOCTYPE svg PUBLIC "-//W3C//DTD SVG 1.1//EN" "http://www.w3.org/Graphics/SVG/1.1/DTD/svg11.dtd">
<svg version="1.1" id="Layer_1" xmlns="http://www.w3.org/2000/svg" xmlns:xlink="http://www.w3.org/1999/xlink" x="0px" y="0px"
	 width="612px" height="792px" viewBox="0 0 612 792" enable-background="new 0 0 612 792" xml:space="preserve">
<path fill="#010101" d="M496.137,387.517h-18.032v13.45h18.032V387.517z M506,360.617h-27.896v13.45H506V360.617z M476.111,360.617
	h-14.446v69.741h14.446V360.617z M424.802,360.617h-14.445V392l4.98,13.052c2.491,6.575,5.181,9.364,9.465,9.364V360.617z
	 M394.415,430.357v-31.384l-4.981-13.251c-2.49-6.575-5.181-9.166-9.465-9.166v53.801H394.415z M424.802,430.357v-13.949
	c-3.486,0-7.87-1.295-10.959-9.464l-17.435-46.328h-16.439v13.948c3.487,0,7.871,1.195,10.959,9.465l17.436,46.328H424.802z
	 M345.956,417.904c-4.085,0-6.974-3.388-6.974-7.473v-29.889c0-4.085,2.889-7.473,6.974-7.473v-13.45
	c-11.756,0-21.421,9.166-21.421,20.923v29.889c0,11.756,9.665,20.922,21.421,20.922V417.904z M369.369,380.542
	c0-11.757-9.664-20.923-21.421-20.923v13.45c4.085,0,6.975,3.388,6.975,7.473v29.889c0,4.085-2.89,7.473-6.975,7.473v13.449
	c11.757,0,21.421-9.166,21.421-20.922V380.542z M313.926,360.617H299.48v69.741h14.446V360.617z M290.573,360.617h-43.937v13.45
	h43.937V360.617z M275.828,376.059h-14.446v54.298h14.446V376.059z M228.674,421.789l-2.59-11.656h-8.768l4.484-19.328
	c-1.993-8.17-4.982-14.347-11.059-14.347l-12.554,53.9h14.546l1.993-8.568H228.674z M247.205,430.357l-16.239-69.741h-16.539
	l-3.188,13.948c4.184,0,9.365,2.491,12.155,14.845l9.265,40.948H247.205z M198.976,360.617h-43.937v13.45h43.937V360.617z
	 M184.23,376.059h-14.446v54.298h14.446V376.059z M149.837,379.545c-0.498-11.955-9.265-19.926-20.424-19.926v13.45
	c3.387,0.1,5.978,3.089,5.978,7.473L149.837,379.545z M127.42,417.904c-3.985-0.101-6.974-3.687-6.974-7.473L106,411.129
	c0.398,11.855,9.564,20.225,21.42,20.225V417.904z M129.413,431.354c11.856,0,21.919-9.266,21.919-21.221
	c0-9.764-4.683-16.539-13.749-19.528c-2.391-0.797-7.871-2.789-9.963-3.586c-3.189-1.196-6.277-3.089-6.277-7.273
	c0-4.583,3.288-6.576,6.077-6.676v-13.45c-10.959,0-20.623,8.17-20.623,20.325c0,8.07,4.085,16.339,14.446,19.927
	c2.491,0.896,5.181,1.893,8.27,3.088c4.184,1.595,6.874,3.985,6.874,7.672c0,4.583-2.889,7.173-6.974,7.273V431.354z"/>
</svg>
